<?xml version="1.0" standalone="no"?>
<!DOCTYPE svg PUBLIC "-//W3C//DTD SVG 20010904//EN"
 "http://www.w3.org/TR/2001/REC-SVG-20010904/DTD/svg10.dtd">
<svg version="1.0" xmlns="http://www.w3.org/2000/svg"
 width="568.000000pt" height="568.000000pt" viewBox="0 0 568.000000 568.000000"
 preserveAspectRatio="xMidYMid meet">
<metadata>
Created by potrace 1.11, written by Peter Selinger 2001-2013
</metadata>
<g transform="translate(0.000000,568.000000) scale(0.100000,-0.100000)"
fill="#000000" stroke="none">
<path d="M3083 5460 c-34 -5 -78 -13 -98 -19 -25 -7 -66 -6 -128 1 -120 14
-343 4 -487 -21 -228 -39 -432 -127 -605 -261 -33 -25 -96 -65 -140 -89 -294
-159 -486 -411 -590 -771 -60 -209 -65 -267 -61 -733 4 -437 3 -426 48 -467
12 -11 20 -52 33 -167 l16 -153 -40 -50 c-54 -69 -88 -142 -107 -230 -67 -316
182 -629 501 -630 l60 0 64 -125 c35 -68 92 -162 127 -208 83 -110 228 -248
341 -322 l91 -61 -54 -28 c-106 -56 -232 -223 -378 -499 -55 -104 -127 -263
-149 -328 -28 -82 -4 -121 122 -196 2 -1 -4 -23 -13 -49 -9 -26 -16 -49 -16
-51 0 -2 25 -3 55 -3 50 0 56 2 65 25 l10 25 50 -25 c48 -24 55 -25 255 -25
l206 0 38 40 c34 35 41 39 67 31 52 -16 61 -22 72 -47 9 -19 19 -24 46 -24
l34 0 4 60 3 60 -157 0 -158 0 0 145 0 145 623 -2 622 -3 3 -142 3 -143 -316
0 -315 0 0 -60 0 -60 190 0 190 0 35 39 c35 38 36 39 77 28 28 -7 46 -19 57
-38 l16 -29 220 0 c172 1 225 4 245 15 32 18 40 18 40 0 0 -12 13 -15 61 -15
54 0 60 2 54 18 -23 60 -20 69 37 101 124 70 131 111 49 296 -158 359 -351
645 -485 715 l-45 24 92 60 c113 74 302 259 373 367 28 42 76 124 105 183 l54
106 60 0 c211 0 416 151 483 355 56 170 28 350 -78 490 l-48 63 9 88 c12 125
29 443 29 534 0 64 3 80 20 95 11 10 20 23 20 29 0 5 12 27 26 47 37 53 36 98
-4 153 -32 44 -32 44 -31 167 1 134 -31 326 -72 438 -14 36 -24 94 -28 166 -7
97 -12 119 -43 185 -66 140 -149 209 -296 245 l-83 21 -24 58 c-48 118 -134
193 -259 227 -88 23 -137 45 -206 93 -59 40 -206 103 -284 121 -81 19 -226 26
-303 15z m1436 -2286 c1 -111 -2 -236 -6 -278 l-6 -78 -61 5 c-34 3 -86 10
-116 16 -109 20 -356 31 -723 31 -343 0 -380 -2 -438 -20 -99 -30 -182 -40
-330 -40 -143 0 -213 9 -318 41 -58 17 -96 19 -446 19 -352 0 -728 -18 -757
-36 -5 -3 -38 -7 -74 -8 -74 -3 -70 -8 -79 109 -3 44 -9 93 -12 109 -5 27 -3
28 22 24 64 -13 135 37 135 95 0 11 5 17 13 13 6 -2 29 -10 50 -17 20 -7 37
-18 37 -25 0 -7 14 -24 31 -38 l31 -27 176 6 c101 3 203 1 241 -6 75 -12 271
-73 414 -130 89 -36 157 -49 157 -32 0 4 -15 31 -32 60 l-33 54 -100 30 c-143
43 -335 112 -335 120 0 16 36 14 53 -2 22 -20 91 -39 139 -39 18 1 58 9 88 20
45 16 83 19 203 20 150 0 260 16 320 47 28 14 30 13 61 -23 31 -36 37 -38 101
-42 83 -5 161 11 237 49 64 32 83 35 95 16 4 -8 21 -22 38 -33 24 -16 47 -19
135 -18 120 0 172 17 272 85 40 27 69 39 92 39 28 0 51 13 110 60 l75 61 46
-36 c26 -20 58 -35 73 -35 15 0 46 -7 68 -15 48 -16 94 -8 129 25 17 16 27 18
51 11 37 -10 114 11 140 40 l19 21 6 -24 c4 -12 7 -113 8 -224z m-2695 -394
c-6 -6 -25 -12 -42 -13 -28 -2 -30 -4 -16 -14 14 -10 10 -12 -20 -15 l-36 -3
52 -70 c41 -54 65 -76 107 -96 95 -47 288 -64 384 -35 26 8 68 30 95 50 27 19
61 40 77 46 l28 11 -34 35 c-19 20 -61 54 -94 76 l-60 40 80 -6 c131 -11 151
-16 176 -43 21 -22 24 -33 23 -104 -2 -97 -21 -202 -45 -250 -23 -46 -77 -93
-126 -110 -29 -11 -122 -14 -408 -14 -474 0 -462 -4 -489 176 -8 52 -18 142
-21 200 -9 127 -7 130 104 140 131 11 276 10 265 -1z m177 -26 c-14 -18 -21
-41 -21 -71 0 -52 12 -79 48 -111 l27 -23 -30 7 c-98 22 -215 92 -215 128 0
35 110 95 173 96 l38 0 -20 -26z m1359 8 c-56 -39 -131 -105 -128 -112 7 -19
147 -102 198 -117 120 -35 383 7 433 69 44 56 97 128 97 133 0 3 -14 5 -31 5
-17 0 -28 4 -24 10 3 5 -9 14 -27 19 -24 7 17 9 149 8 134 -1 185 -5 195 -15
24 -24 -1 -345 -32 -419 -33 -77 -38 -77 -419 -81 -436 -5 -505 7 -564 97 -50
76 -83 294 -54 363 19 45 50 56 157 57 73 0 75 0 50 -17z m428 -11 c80 -41 89
-53 64 -89 -25 -34 -106 -80 -174 -98 l-51 -13 26 27 c50 52 59 106 27 165
l-20 37 35 0 c20 0 62 -13 93 -29z m-2545 -47 c3 -30 12 -66 20 -78 8 -12 22
-60 32 -107 23 -119 79 -328 115 -433 16 -50 30 -94 30 -99 0 -22 -111 0 -184
36 -265 132 -314 478 -95 681 33 31 64 56 68 56 5 0 11 -25 14 -56z m848 36
c28 -15 23 -36 -11 -54 -16 -8 -30 -10 -30 -5 0 6 -4 7 -10 4 -14 -9 12 -34
29 -27 9 3 7 -2 -5 -16 -17 -20 -41 -21 -29 -1 4 5 1 9 -5 9 -7 0 -8 15 -4 43
9 55 26 67 65 47z m305 -71 c9 -11 15 -20 13 -22 -2 -1 -29 -19 -59 -39 -61
-41 -100 -58 -133 -58 l-21 0 22 16 c38 27 55 72 49 131 l-6 53 59 -31 c32
-17 67 -40 76 -50z m1011 43 c-14 -52 -3 -88 39 -130 l35 -35 -40 6 c-24 3
-66 22 -101 45 -33 22 -65 43 -72 45 -9 4 -5 12 12 27 26 22 121 80 131 80 3
0 2 -17 -4 -38z m229 24 c15 -12 17 -18 8 -33 -13 -20 -51 -20 -72 1 -11 11
-11 16 3 30 20 20 35 20 61 2z m890 -38 c99 -93 148 -234 126 -362 -26 -162
-133 -288 -286 -339 -52 -18 -126 -23 -126 -9 0 5 14 48 30 98 37 108 93 318
115 434 10 54 23 91 35 101 11 10 21 37 25 72 4 32 12 57 17 57 5 0 34 -23 64
-52z m-1529 -28 c39 -23 51 -46 93 -175 54 -165 82 -205 172 -245 79 -35 197
-43 528 -37 312 5 345 10 402 49 l26 18 -25 -82 c-145 -475 -332 -741 -652
-931 -107 -64 -232 -118 -411 -177 -256 -85 -324 -85 -580 0 -264 88 -419 166
-573 290 -207 166 -346 387 -461 732 -31 91 -56 169 -56 173 0 4 14 -5 30 -19
17 -14 47 -30 68 -36 54 -17 625 -25 737 -11 106 13 185 48 227 102 16 19 46
88 69 153 73 215 74 216 248 216 107 0 131 -3 158 -20z m650 -10 c1 -11 -3
-22 -8 -25 -5 -4 -6 -11 -3 -17 4 -7 2 -8 -4 -4 -7 4 -12 4 -12 -1 0 -12 -58
-14 -65 -3 -4 6 -14 10 -23 10 -15 0 -15 -2 -2 -11 12 -9 11 -10 -7 -6 -14 3
-23 0 -24 -6 0 -8 -2 -8 -6 1 -2 6 -11 12 -18 12 -16 0 -23 18 -17 42 3 15 6
15 18 3 19 -19 18 -28 -3 -20 -15 5 -16 4 -5 -6 8 -9 15 -10 23 -2 7 7 23 8
47 2 48 -11 60 -11 42 1 -8 5 -10 10 -5 10 6 0 17 -4 25 -9 22 -14 34 -1 13
15 -17 12 -17 13 0 14 9 0 17 5 17 10 0 19 16 10 17 -10z m-1447 -26 c14 -35
-2 -54 -40 -49 -16 2 -34 6 -40 10 -5 3 -20 1 -32 -6 -13 -6 -20 -8 -16 -4 4
5 3 14 -3 21 -13 16 -4 34 17 34 8 0 12 -4 9 -10 -4 -6 8 -10 30 -10 20 0 45
-5 55 -10 16 -8 18 -8 14 5 -3 8 -9 13 -13 11 -4 -3 -13 0 -21 5 -12 8 -11 9
5 7 12 -2 19 2 18 10 -5 22 7 13 17 -14z m1387 -50 c-3 -3 -12 -4 -19 -1 -8 3
-5 6 6 6 11 1 17 -2 13 -5z m-1096 -1589 c290 -99 407 -100 683 -6 88 30 136
39 136 23 0 -16 -94 -120 -158 -175 -37 -32 -105 -77 -151 -100 -77 -38 -91
-42 -161 -42 -70 0 -84 4 -161 42 -97 48 -203 133 -271 218 -73 90 -69 91 83
40z m1533 -675 c16 -39 27 -72 25 -73 -88 -64 -274 -154 -363 -177 -125 -32
-121 -33 -134 57 -6 43 -10 79 -8 80 3 4 440 182 446 183 3 0 18 -32 34 -70z
m-2111 -27 l219 -88 -7 -55 c-9 -81 -15 -100 -34 -100 -37 0 -179 42 -241 71
-95 44 -220 121 -220 136 0 19 48 123 57 123 4 0 106 -39 226 -87z"/>
<path d="M3755 3173 c-11 -2 -76 -24 -145 -48 -69 -25 -170 -58 -225 -74
l-100 -30 -34 -57 c-52 -85 -29 -88 149 -17 122 49 321 111 396 123 39 7 100
9 142 5 43 -4 72 -3 72 3 0 5 -26 23 -57 39 -81 43 -158 64 -198 56z"/>
<path d="M2596 2148 c-66 -66 -54 -161 25 -192 22 -9 50 -16 64 -16 13 0 41
-10 61 -22 46 -27 129 -30 165 -7 13 9 44 19 69 23 93 14 150 76 136 149 -8
45 -60 99 -90 95 -28 -4 -33 -42 -8 -60 69 -49 36 -118 -56 -118 -24 0 -49 -8
-65 -20 -33 -26 -92 -26 -135 0 -18 11 -46 20 -62 20 -52 0 -80 19 -80 56 0
25 8 39 33 58 27 21 30 29 21 43 -18 29 -43 26 -78 -9z"/>
<path d="M2221 1686 c-18 -22 1 -52 52 -78 37 -20 65 -23 247 -32 376 -17 802
-8 865 18 49 21 75 44 75 67 0 27 -32 31 -76 12 -30 -14 -66 -18 -159 -18 -66
0 -171 -4 -233 -9 -73 -6 -202 -5 -360 3 -217 10 -298 20 -378 46 -13 4 -25 1
-33 -9z"/>
<path d="M2975 382 c-17 -10 -47 -35 -68 -54 -29 -27 -37 -43 -37 -69 0 -19 4
-39 8 -45 9 -13 84 -64 94 -64 8 0 60 156 61 180 0 8 4 21 9 27 14 18 2 43
-19 43 -10 0 -32 -8 -48 -18z m55 -11 c0 -11 -69 -36 -77 -28 -6 6 46 36 65
37 6 0 12 -4 12 -9z"/>
<path d="M2262 358 c-17 -17 -15 -45 7 -92 10 -23 21 -49 24 -58 7 -21 65 -58
90 -58 9 0 38 19 63 42 l46 43 -32 26 c-17 15 -61 42 -96 60 -36 18 -67 36
-70 41 -7 11 -18 10 -32 -4z m34 -43 c6 -24 0 -44 -10 -34 -11 11 -17 59 -7
59 6 0 13 -11 17 -25z"/>
<path d="M3207 363 c-14 -13 -6 -69 17 -123 18 -41 32 -59 57 -72 50 -25 65
-22 112 22 53 49 48 58 -58 113 -44 23 -84 48 -88 55 -9 13 -30 16 -40 5z m33
-66 c0 -24 -3 -28 -10 -17 -13 20 -13 63 0 55 6 -3 10 -21 10 -38z"/>
<path d="M2671 49 c-6 -18 -11 -36 -11 -40 0 -5 32 -9 71 -9 48 0 68 3 63 11
-7 12 -94 69 -105 69 -4 0 -12 -14 -18 -31z"/>
</g>
</svg>
